<svg width="20" height="20" viewBox="0 0 20 20" fill="none" xmlns="http://www.w3.org/2000/svg">
<path d="M11.7044 1.86868L8.24776 1.86035H8.24609C4.60109 1.86035 1.74609 4.71619 1.74609 8.36202C1.74609 11.777 4.40109 14.367 7.96693 14.5037V17.6937C7.96693 17.7837 8.00359 17.932 8.06693 18.0295C8.18526 18.217 8.38693 18.3187 8.59359 18.3187C8.70859 18.3187 8.82443 18.287 8.92859 18.2204C9.14859 18.0804 14.3228 14.7704 15.6686 13.632C17.2536 12.2904 18.2019 10.3237 18.2044 8.37202V8.35785C18.1994 4.71868 15.3461 1.86868 11.7044 1.86785V1.86868ZM14.8603 12.6787C13.9153 13.4787 10.8086 15.5162 9.21693 16.5479V13.892C9.21693 13.547 8.93776 13.267 8.59193 13.267H8.26193C5.21193 13.267 2.99693 11.2037 2.99693 8.36202C2.99693 5.41702 5.30359 3.11035 8.24693 3.11035L11.7028 3.11869H11.7044C14.6478 3.11869 16.9544 5.42368 16.9561 8.36535C16.9536 9.95702 16.1711 11.5687 14.8611 12.6787H14.8603Z" fill="#536471"/>
</svg>
