<svg
            width="20"
            height="20"
            viewBox="0 0 20 20"
            fill="none"
            xmlns="http://www.w3.org/2000/svg"
          >
            <path
              d="M4.16667 11.6663C5.08714 11.6663 5.83333 10.9201 5.83333 9.99967C5.83333 9.0792 5.08714 8.33301 4.16667 8.33301C3.24619 8.33301 2.5 9.0792 2.5 9.99967C2.5 10.9201 3.24619 11.6663 4.16667 11.6663Z"
              fill="#536471"
            />
            <path
              d="M10 11.6663C10.9205 11.6663 11.6667 10.9201 11.6667 9.99967C11.6667 9.0792 10.9205 8.33301 10 8.33301C9.07952 8.33301 8.33333 9.0792 8.33333 9.99967C8.33333 10.9201 9.07952 11.6663 10 11.6663Z"
              fill="#536471"
            />
            <path
              d="M15.8333 11.6663C16.7538 11.6663 17.5 10.9201 17.5 9.99967C17.5 9.0792 16.7538 8.33301 15.8333 8.33301C14.9129 8.33301 14.1667 9.0792 14.1667 9.99967C14.1667 10.9201 14.9129 11.6663 15.8333 11.6663Z"
              fill="#536471"
            />
          </svg>