<svg width="20" height="20" viewBox="0 0 20 20" fill="none" xmlns="http://www.w3.org/2000/svg">
<path d="M14.6087 6.22479L10.442 2.05813C10.1978 1.81396 9.80199 1.81396 9.55866 2.05813L5.39199 6.22479C5.14699 6.46896 5.14699 6.86479 5.39199 7.10813C5.63699 7.35146 6.03116 7.35313 6.27533 7.10813L9.37533 4.00813V12.4998C9.37533 12.8448 9.65533 13.1248 10.0003 13.1248C10.3453 13.1248 10.6253 12.8448 10.6253 12.4998V4.00813L13.7253 7.10813C13.847 7.23063 14.007 7.29146 14.167 7.29146C14.327 7.29146 14.487 7.23146 14.6087 7.10813C14.8528 6.86396 14.8528 6.46896 14.6087 6.22479Z" fill="#536471"/>
<path d="M16.4237 18.2865H3.57699C2.52366 18.2865 1.66699 17.4298 1.66699 16.3765V11.6665C1.66699 11.3215 1.94699 11.0415 2.29199 11.0415C2.63699 11.0415 2.91699 11.3215 2.91699 11.6665V16.3765C2.91699 16.7406 3.21283 17.0365 3.57699 17.0365H16.4237C16.7878 17.0365 17.0837 16.7406 17.0837 16.3765V11.6665C17.0837 11.3215 17.3637 11.0415 17.7087 11.0415C18.0537 11.0415 18.3337 11.3215 18.3337 11.6665V16.3765C18.3337 17.4298 17.477 18.2865 16.4237 18.2865Z" fill="#536471"/>
</svg>
