<svg
          width="16"
          height="16"
          viewBox="0 0 16 16"
          fill="none"
          xmlns="http://www.w3.org/2000/svg"
        >
          <path
            d="M15.7431 10.3185C15.4298 10.0051 14.9231 10.0051 14.6118 10.3185L13.7278 11.2025V4.9338C13.7278 3.4818 12.5464 2.30047 11.0944 2.30047H7.62777C7.18577 2.30047 6.82777 2.65914 6.82777 3.10047C6.82777 3.5418 7.18577 3.90047 7.62777 3.90047H11.0944C11.6638 3.90047 12.1278 4.3638 12.1278 4.9338V11.2025L11.2438 10.3185C10.9304 10.0051 10.4238 10.0051 10.1124 10.3185C9.8011 10.6318 9.7991 11.1385 10.1124 11.4498L12.3618 13.6998C12.5178 13.8551 12.7231 13.9331 12.9284 13.9331C13.1338 13.9331 13.3371 13.8558 13.4938 13.6998L15.7438 11.4491C16.0551 11.1358 16.0551 10.6291 15.7424 10.3178L15.7431 10.3185ZM8.37444 12.3338H4.90777C4.33844 12.3338 3.87444 11.8705 3.87444 11.3005V5.0318L4.75844 5.9158C4.91444 6.07247 5.11977 6.15047 5.32377 6.15047C5.52777 6.15047 5.7331 6.07247 5.89044 5.9158C6.20244 5.60247 6.20244 5.0958 5.89044 4.78447L3.63977 2.5338C3.32644 2.2218 2.81977 2.2218 2.50844 2.5338L0.258437 4.78514C-0.0548958 5.09847 -0.0548958 5.60514 0.258437 5.91647C0.571771 6.2278 1.07844 6.2298 1.38977 5.91647L2.2731 5.0318V11.3005C2.2731 12.7525 3.4551 13.9338 4.90644 13.9338H8.37311C8.81577 13.9338 9.17311 13.5751 9.17311 13.1338C9.17311 12.6925 8.81644 12.3338 8.37444 12.3338Z"
            fill="#536471"
          />
        </svg>