<svg width="21" height="20" viewBox="0 0 21 20" fill="none" xmlns="http://www.w3.org/2000/svg">
<path d="M10.5 18.0312H10.4883C8.33583 17.9912 2.125 12.3795 2.125 7.06453C2.125 4.5112 4.22917 2.26953 6.6275 2.26953C8.53583 2.26953 9.81917 3.5862 10.4992 4.54453C11.1775 3.58786 12.4608 2.26953 14.37 2.26953C16.77 2.26953 18.8733 4.5112 18.8733 7.06536C18.8733 12.3787 12.6617 17.9904 10.5092 18.0295H10.5V18.0312ZM6.62833 3.52036C4.895 3.52036 3.37583 5.17703 3.37583 7.0662C3.37583 11.8495 9.2375 16.7295 10.5008 16.7812C11.7658 16.7295 17.6258 11.8504 17.6258 7.0662C17.6258 5.17703 16.1067 3.52036 14.3733 3.52036C12.2667 3.52036 11.09 5.96703 11.08 5.9912C10.8883 6.45953 10.1167 6.45953 9.92417 5.9912C9.9125 5.9662 8.73667 3.52036 6.62917 3.52036H6.62833Z" fill="#536471"/>
</svg>
