<svg width="21" height="20" viewBox="0 0 21 20" fill="none" xmlns="http://www.w3.org/2000/svg">
<g clip-path="url(#clip0_2635_75)">
<path d="M20.0585 13.0588C19.8152 12.8146 19.4193 12.8146 19.1752 13.0588L17.3252 14.9088V6.37542C17.3252 4.65208 15.9227 3.25042 14.2002 3.25042H9.32518C8.98018 3.25042 8.70018 3.53042 8.70018 3.87542C8.70018 4.22042 8.98018 4.50042 9.32518 4.50042H14.2002C15.2335 4.50042 16.0752 5.34208 16.0752 6.37542V14.9088L14.2252 13.0588C13.981 12.8146 13.5852 12.8146 13.3418 13.0588C13.0985 13.3029 13.0968 13.6988 13.3418 13.9421L16.2585 16.8588C16.3793 16.9813 16.5393 17.0421 16.7002 17.0421C16.861 17.0421 17.0194 16.9821 17.1418 16.8588L20.0585 13.9421C20.3035 13.6988 20.3035 13.3029 20.0585 13.0588ZM11.1752 15.7921H6.30018C5.26685 15.7921 4.42518 14.9504 4.42518 13.9171V5.38375L6.27518 7.23375C6.39852 7.35625 6.55852 7.41708 6.71852 7.41708C6.87852 7.41708 7.03852 7.35625 7.16018 7.23375C7.40435 6.98958 7.40435 6.59375 7.16018 6.35042L4.24352 3.43375C3.99935 3.18875 3.60352 3.18875 3.36018 3.43375L0.443516 6.35042C0.198516 6.59375 0.198516 6.98958 0.443516 7.23375C0.688516 7.47792 1.08268 7.47792 1.32685 7.23375L3.17685 5.38375V13.9171C3.17685 15.6404 4.57935 17.0421 6.30185 17.0421H11.1768C11.5218 17.0421 11.8018 16.7621 11.8018 16.4171C11.8018 16.0721 11.521 15.7921 11.1768 15.7921H11.1752Z" fill="#536471"/>
</g>
<defs>
<clipPath id="clip0_2635_75">
<rect width="20" height="20" fill="white" transform="translate(0.25)"/>
</clipPath>
</defs>
</svg>
