<svg width="20" height="20" viewBox="0 0 20 20" fill="none" xmlns="http://www.w3.org/2000/svg">
<path d="M18.7499 10.4167C18.7499 9.1 18.0207 7.95833 16.9599 7.41667C17.0882 7.05417 17.1582 6.6625 17.1582 6.25C17.1582 4.40833 15.7332 2.91833 13.9765 2.91833C13.5849 2.91833 13.2099 2.98833 12.8632 3.12667C12.3482 2.0125 11.2582 1.25 9.99986 1.25C8.74152 1.25 7.65319 2.01417 7.13569 3.125C6.78986 2.9875 6.41402 2.91667 6.02236 2.91667C4.26402 2.91667 2.84069 4.40833 2.84069 6.25C2.84069 6.66167 2.90986 7.05333 3.03819 7.41667C1.97819 7.95833 1.24902 9.09833 1.24902 10.4167C1.24902 11.6625 1.90069 12.7483 2.86736 13.3217C2.85069 13.4633 2.84069 13.605 2.84069 13.75C2.84069 15.5917 4.26402 17.0833 6.02236 17.0833C6.41402 17.0833 6.78902 17.0117 7.13486 16.875C7.65152 17.9867 8.73986 18.75 9.99902 18.75C11.259 18.75 12.3474 17.9867 12.8632 16.875C13.209 17.0108 13.584 17.0817 13.9765 17.0817C15.7349 17.0817 17.1582 15.59 17.1582 13.7483C17.1582 13.6033 17.1482 13.4617 17.1307 13.3208C18.0957 12.7483 18.7499 11.6625 18.7499 10.4175V10.4167ZM13.2365 7.63833L9.62486 13.055C9.50402 13.2358 9.30652 13.3333 9.10402 13.3333C8.98486 13.3333 8.86402 13.3 8.75736 13.2283L8.66152 13.15L6.64902 11.1375C6.40486 10.8933 6.40486 10.4975 6.64902 10.2542C6.89319 10.0108 7.28902 10.0092 7.53236 10.2542L9.00736 11.7267L12.1949 6.94333C12.3865 6.65583 12.7749 6.58 13.0615 6.77083C13.3499 6.9625 13.4282 7.35083 13.2365 7.6375V7.63833Z" fill="#1D9BF0"/>
</svg>
